<svg width="1200" height="780" viewBox="0 0 1200 780" fill="none" xmlns="http://www.w3.org/2000/svg">
  <rect width="1200" height="780" fill="#F4F7FB"/>
  <rect x="360" y="42" width="480" height="696" rx="48" fill="#101418"/>
  <rect x="379" y="62" width="442" height="656" rx="34" fill="#F8FAFD"/>
  <rect x="545" y="78" width="110" height="18" rx="9" fill="#101418"/>

  <text x="416" y="134" fill="#151A1F" font-family="Inter,Roboto,Arial,sans-serif" font-size="24" font-weight="700">Pixel Battery Health</text>

  <rect x="416" y="164" width="368" height="218" rx="32" fill="#FFFFFF"/>
  <rect x="416" y="164" width="368" height="218" rx="32" fill="url(#hero)"/>
  <circle cx="479" cy="244" r="42" fill="#0B57D0" fill-opacity="0.14"/>
  <rect x="462" y="218" width="34" height="52" rx="10" fill="#E7EEF8"/>
  <rect x="462" y="229" width="34" height="41" rx="8" fill="#0B57D0"/>
  <rect x="470" y="211" width="18" height="8" rx="4" fill="#E7EEF8"/>

  <text x="544" y="242" fill="#151A1F" font-family="Inter,Roboto,Arial,sans-serif" font-size="62" font-weight="800">92%</text>
  <text x="548" y="279" fill="#53606C" font-family="Inter,Roboto,Arial,sans-serif" font-size="21" font-weight="500">Pixel 8 Pro</text>
  <rect x="544" y="306" width="104" height="38" rx="19" fill="#E7EEF8"/>
  <text x="569" y="331" fill="#0B57D0" font-family="Inter,Roboto,Arial,sans-serif" font-size="17" font-weight="700">Excellent</text>

  <rect x="416" y="406" width="172" height="96" rx="20" fill="#FFFFFF"/>
  <text x="438" y="444" fill="#66727F" font-family="Inter,Roboto,Arial,sans-serif" font-size="17" font-weight="700">Estimated</text>
  <text x="438" y="475" fill="#151A1F" font-family="Inter,Roboto,Arial,sans-serif" font-size="25" font-weight="800">4660 mAh</text>

  <rect x="612" y="406" width="172" height="96" rx="20" fill="#FFFFFF"/>
  <text x="634" y="444" fill="#66727F" font-family="Inter,Roboto,Arial,sans-serif" font-size="17" font-weight="700">Design</text>
  <text x="634" y="475" fill="#151A1F" font-family="Inter,Roboto,Arial,sans-serif" font-size="25" font-weight="800">5050 mAh</text>

  <rect x="416" y="520" width="172" height="96" rx="20" fill="#FFFFFF"/>
  <text x="438" y="558" fill="#66727F" font-family="Inter,Roboto,Arial,sans-serif" font-size="17" font-weight="700">Cycles</text>
  <text x="438" y="589" fill="#151A1F" font-family="Inter,Roboto,Arial,sans-serif" font-size="25" font-weight="800">785</text>

  <rect x="612" y="520" width="172" height="96" rx="20" fill="#FFFFFF"/>
  <text x="634" y="558" fill="#66727F" font-family="Inter,Roboto,Arial,sans-serif" font-size="17" font-weight="700">Health</text>
  <text x="634" y="589" fill="#151A1F" font-family="Inter,Roboto,Arial,sans-serif" font-size="25" font-weight="800">Good</text>

  <rect x="416" y="644" width="368" height="54" rx="18" fill="#0B57D0"/>
  <text x="529" y="678" fill="#FFFFFF" font-family="Inter,Roboto,Arial,sans-serif" font-size="19" font-weight="800">Create Bugreport</text>

  <text x="84" y="268" fill="#151A1F" font-family="Inter,Roboto,Arial,sans-serif" font-size="42" font-weight="800">Offline Pixel battery health</text>
  <text x="84" y="312" fill="#53606C" font-family="Inter,Roboto,Arial,sans-serif" font-size="22" font-weight="500">Import or share a bugreport ZIP.</text>
  <text x="84" y="344" fill="#53606C" font-family="Inter,Roboto,Arial,sans-serif" font-size="22" font-weight="500">The app extracts, scans, and parses it on-device.</text>

  <rect x="888" y="258" width="228" height="56" rx="18" fill="#FFFFFF"/>
  <circle cx="920" cy="286" r="12" fill="#34A853"/>
  <text x="948" y="293" fill="#151A1F" font-family="Inter,Roboto,Arial,sans-serif" font-size="20" font-weight="700">No internet access</text>

  <rect x="888" y="334" width="228" height="56" rx="18" fill="#FFFFFF"/>
  <circle cx="920" cy="362" r="12" fill="#0B57D0"/>
  <text x="948" y="369" fill="#151A1F" font-family="Inter,Roboto,Arial,sans-serif" font-size="20" font-weight="700">Share sheet ready</text>

  <rect x="888" y="410" width="228" height="56" rx="18" fill="#FFFFFF"/>
  <circle cx="920" cy="438" r="12" fill="#F9AB00"/>
  <text x="948" y="445" fill="#151A1F" font-family="Inter,Roboto,Arial,sans-serif" font-size="20" font-weight="700">Guided bugreport</text>

  <defs>
    <linearGradient id="hero" x1="600" y1="164" x2="600" y2="382" gradientUnits="userSpaceOnUse">
      <stop stop-color="#0B57D0" stop-opacity="0.18"/>
      <stop offset="1" stop-color="#FFFFFF" stop-opacity="0"/>
    </linearGradient>
  </defs>
</svg>
